<svg width="25" height="25" viewBox="0 0 25 25" fill="none" xmlns="http://www.w3.org/2000/svg">
<g id="heroicons-solid/clock">
<path id="Subtract" fill-rule="evenodd" clip-rule="evenodd" d="M12.9141 2.75C7.52929 2.75 3.16406 7.11522 3.16406 12.5C3.16406 17.8848 7.52929 22.25 12.9141 22.25C18.2988 22.25 22.6641 17.8848 22.6641 12.5C22.6641 7.11522 18.2988 2.75 12.9141 2.75ZM13.6641 6.5C13.6641 6.08579 13.3283 5.75 12.9141 5.75C12.4998 5.75 12.1641 6.08579 12.1641 6.5V12.5C12.1641 12.9142 12.4998 13.25 12.9141 13.25H17.4141C17.8283 13.25 18.1641 12.9142 18.1641 12.5C18.1641 12.0858 17.8283 11.75 17.4141 11.75H13.6641V6.5Z" fill="#F5F7F8"/>
</g>
</svg>
